<svg width="105" height="62" viewBox="0 0 105 62" fill="none" xmlns="http://www.w3.org/2000/svg">
<path d="M65.1338 9.47097C67.8766 5.09209 74.2556 5.09208 76.9984 9.47096L93.4802 35.7841C96.4004 40.4462 93.049 46.5 87.5479 46.5H54.5843C49.0831 46.5 45.7318 40.4462 48.6519 35.7842L65.1338 9.47097Z" fill="#E9AC4F"/>
<path d="M46.7237 9.3663C49.4709 5.01824 55.8121 5.01824 58.5593 9.36629L75.2359 35.761C78.1809 40.4221 74.8316 46.5 69.3182 46.5H35.9648C30.4514 46.5 27.1021 40.4221 30.0471 35.761L46.7237 9.3663Z" fill="#987DE4"/>
<path d="M28.0067 9.3663C30.7539 5.01824 37.0951 5.01824 39.8423 9.36629L56.519 35.761C59.4639 40.4221 56.1146 46.5 50.6012 46.5H17.2479C11.7344 46.5 8.38516 40.4221 11.3301 35.761L28.0067 9.3663Z" fill="#5776E2"/>
</svg>
