<?xml version="1.0" standalone="no"?>
<!DOCTYPE svg PUBLIC "-//W3C//DTD SVG 20010904//EN"
 "http://www.w3.org/TR/2001/REC-SVG-20010904/DTD/svg10.dtd">
<svg version="1.0" xmlns="http://www.w3.org/2000/svg"
 width="512.000000pt" height="512.000000pt" viewBox="0 0 512.000000 512.000000"
 preserveAspectRatio="xMidYMid meet">

<g transform="translate(0.000000,512.000000) scale(0.100000,-0.100000)"
fill="#000000" stroke="none">
<path d="M2378 4944 c-175 -27 -365 -107 -509 -216 -294 -221 -459 -554 -459
-923 0 -259 79 -495 233 -701 47 -61 170 -184 222 -221 16 -12 28 -23 25 -25
-3 -3 -54 -24 -115 -47 -187 -73 -399 -195 -555 -320 -88 -70 -249 -230 -322
-319 -327 -398 -505 -923 -485 -1427 3 -77 13 -174 22 -215 62 -268 232 -396
482 -361 116 16 242 59 558 191 320 133 572 219 750 256 116 25 151 28 330 28
170 1 217 -3 314 -22 216 -44 415 -112 813 -278 463 -192 612 -221 774 -145
112 52 188 156 229 311 23 87 31 371 16 522 -65 629 -419 1214 -949 1568 -112
75 -341 192 -452 231 -36 12 -67 24 -69 26 -2 1 9 13 25 25 55 42 176 163 219
218 106 137 188 322 220 496 22 113 22 305 0 419 -90 482 -478 857 -962 930
-118 18 -238 18 -355 -1z m340 -320 c327 -67 571 -302 659 -634 25 -96 22
-290 -6 -395 -101 -375 -426 -627 -811 -627 -444 -1 -805 338 -836 785 -24
356 201 704 541 833 140 53 311 67 453 38z m-34 -1984 c457 -33 850 -212 1172
-534 321 -321 499 -711 535 -1171 16 -206 -10 -406 -58 -442 -45 -34 -181 -1
-438 107 -560 235 -768 304 -1045 344 -245 35 -443 30 -685 -19 -241 -48 -424
-111 -846 -288 -364 -153 -492 -186 -537 -137 -66 71 -76 401 -21 675 161 798
850 1406 1658 1464 58 5 111 9 116 9 6 1 73 -3 149 -8z"/>
</g>
</svg>
